<svg height="464pt" viewBox="-80 0 464 464" width="464pt" xmlns="http://www.w3.org/2000/svg"><path d="m0 432h304v32h-304zm0 0" fill="#995023"/><path d="m32 32h240v400h-240zm0 0" fill="#7a3e1a"/><g fill="#995023"><path d="m0 0h304v32h-304zm0 0"/><path d="m0 144h304v32h-304zm0 0"/><path d="m0 288h304v32h-304zm0 0"/><path d="m0 32h32v112h-32zm0 0"/><path d="m0 176h32v112h-32zm0 0"/><path d="m0 320h32v112h-32zm0 0"/><path d="m272 32h32v112h-32zm0 0"/><path d="m272 176h32v112h-32zm0 0"/><path d="m272 320h32v112h-32zm0 0"/></g><path d="m32 32h240v32h-240zm0 0" fill="#703918"/><path d="m32 176h240v32h-240zm0 0" fill="#703918"/><path d="m32 320h240v32h-240zm0 0" fill="#703918"/><path d="m32 64h32v80h-32zm0 0" fill="#87ced9"/><path d="m64 80h32v64h-32zm0 0" fill="#dd4a43"/><path d="m96 64h32v80h-32zm0 0" fill="#4398d1"/><path d="m272 80v32h-80v-32zm0 0" fill="#87ced9"/><path d="m272 112v32h-80v-32zm0 0" fill="#4398d1"/><path d="m32 208h32v80h-32zm0 0" fill="#4398d1"/><path d="m64 208h32v80h-32zm0 0" fill="#87ced9"/><path d="m32 352h32v80h-32zm0 0" fill="#dd4a43"/><path d="m63.902344 360.257812 28.695312-14.15625 35.398438 71.742188-28.695313 14.160156zm0 0" fill="#4398d1"/><path d="m264.847656 288-29.558594-65.296875-14.578124 6.59375 26.511718 58.703125zm0 0" fill="#f78b20"/><path d="m176 288h53.335938l10.664062-80h-53.335938zm0 0" fill="#fdb62f"/></svg>